<svg width="65" height="65" viewBox="0 0 65 65" fill="none" xmlns="http://www.w3.org/2000/svg">
<path d="M52.4624 13.2449L36.5916 6.17617C34.2624 5.14701 30.7416 5.14701 28.4124 6.17617L12.5417 13.2449C8.53333 15.0324 7.9375 17.4699 7.9375 18.7699C7.9375 20.0699 8.53333 22.5074 12.5417 24.2949L28.4124 31.3636C29.577 31.8782 31.0395 32.149 32.502 32.149C33.9645 32.149 35.427 31.8782 36.5916 31.3636L52.4624 24.2949C56.4707 22.5074 57.0666 20.0699 57.0666 18.7699C57.0666 17.4699 56.4978 15.0324 52.4624 13.2449Z" fill="white"/>
<path d="M32.498 46.1494C31.4688 46.1494 30.4397 45.9327 29.4917 45.5264L11.2375 37.4014C8.44792 36.1556 6.28125 32.8243 6.28125 29.7639C6.28125 28.6535 7.175 27.7598 8.28542 27.7598C9.39583 27.7598 10.2896 28.6535 10.2896 29.7639C10.2896 31.2264 11.5083 33.1223 12.8625 33.7181L31.1167 41.8431C31.9834 42.2223 32.9855 42.2223 33.8522 41.8431L52.1063 33.7181C53.4605 33.1223 54.6792 31.2535 54.6792 29.7639C54.6792 28.6535 55.573 27.7598 56.6834 27.7598C57.7938 27.7598 58.6876 28.6535 58.6876 29.7639C58.6876 32.7973 56.5209 36.1556 53.7313 37.4014L35.4772 45.5264C34.5563 45.9327 33.5272 46.1494 32.498 46.1494Z" fill="white"/>
<path d="M32.498 59.5829C31.4688 59.5829 30.4397 59.3663 29.4917 58.96L11.2375 50.835C8.23125 49.5079 6.28125 46.5017 6.28125 43.1975C6.28125 42.0871 7.175 41.1934 8.28542 41.1934C9.39583 41.1934 10.2896 42.0871 10.2896 43.1975C10.2896 44.9038 11.2917 46.4475 12.8625 47.1517L31.1167 55.2767C31.9834 55.6559 32.9855 55.6559 33.8522 55.2767L52.1063 47.1517C53.6501 46.4746 54.6792 44.9038 54.6792 43.1975C54.6792 42.0871 55.573 41.1934 56.6834 41.1934C57.7938 41.1934 58.6876 42.0871 58.6876 43.1975C58.6876 46.5017 56.7376 49.4809 53.7313 50.835L35.4772 58.96C34.5563 59.3663 33.5272 59.5829 32.498 59.5829Z" fill="white"/>
</svg>
