<svg width="88" height="88" viewBox="0 0 88 88" fill="none" xmlns="http://www.w3.org/2000/svg">
<path d="M35.0017 43.6479C35.0017 43.6479 41.6429 43.1551 41.6429 35.3709C41.6429 27.5862 36.2096 23.7871 29.3271 23.7871H6.67969V67.2893H29.3271C29.3271 67.2893 43.1526 67.7258 43.1526 54.4495C43.1526 54.4496 43.7553 43.6479 35.0017 43.6479ZM27.697 31.5191H29.3271C29.3271 31.5191 32.4056 31.5191 32.4056 36.0454C32.4056 40.571 30.5951 41.2272 28.5416 41.2272H16.6584V31.5191H27.697ZM28.6872 59.5576H16.6584V47.9321H29.3271C29.3271 47.9321 33.9154 47.872 33.9154 53.9064C33.9154 58.9948 30.4884 59.5191 28.6872 59.5576ZM61.5912 34.8554C44.854 34.8554 44.8688 51.5702 44.8688 51.5702C44.8688 51.5702 43.7204 68.1993 61.5912 68.1993C61.5912 68.1993 76.4833 69.0497 76.4833 56.6314H68.8245C68.8245 56.6314 69.0799 61.3079 61.8466 61.3079C61.8466 61.3079 54.1866 61.821 54.1866 53.7395H76.7387C76.7387 53.7394 79.2063 34.8554 61.5912 34.8554ZM54.1024 47.9321C54.1024 47.9321 55.0376 41.227 61.7613 41.227C68.4836 41.227 68.3994 47.9321 68.3994 47.9321H54.1024ZM70.1835 31.7069H52.2274V26.3499H70.1835V31.7069Z" fill="white"/>
</svg>
