<svg width="150" height="150" viewBox="0 0 150 150" fill="none" xmlns="http://www.w3.org/2000/svg">
<g clip-path="url(#clip0_1_83)">
<path d="M75 75.4904C75 74.6402 75.6353 73.9241 76.4794 73.8228L140.005 66.1996C145.321 65.5617 150 69.7125 150 75.0665C150 80.3735 145.399 84.5096 140.122 83.9467L76.5014 77.1605C75.6476 77.0694 75 76.349 75 75.4904Z" fill="#FF9D00"/>
<path d="M75 75.4904C75 74.6402 75.6353 73.9241 76.4794 73.8228L140.005 66.1996C145.321 65.5617 150 69.7125 150 75.0665C150 80.3735 145.399 84.5096 140.122 83.9467L76.5014 77.1605C75.6476 77.0694 75 76.349 75 75.4904Z" fill="#FF9D00"/>
<path d="M75 75.4904C75 74.6402 74.3647 73.9241 73.5206 73.8228L9.99453 66.1996C4.67862 65.5617 0 69.7125 0 75.0665C0 80.3735 4.60066 84.5096 9.87772 83.9467L73.4986 77.1605C74.3524 77.0694 75 76.349 75 75.4904Z" fill="#FF9D00"/>
<path d="M75.4884 75C74.6382 75 73.9221 74.3647 73.8208 73.5205L66.1976 9.99453C65.5597 4.67862 69.7105 2.34032e-07 75.0645 0C80.3715 -2.31977e-07 84.5076 4.60065 83.9447 9.87772L77.1585 73.4986C77.0674 74.3524 76.347 75 75.4884 75Z" fill="#FF9D00"/>
<path d="M75.4884 75C74.6382 75 73.9221 75.6353 73.8208 76.4794L66.1976 140.005C65.5597 145.321 69.7105 150 75.0645 150C80.3715 150 84.5076 145.399 83.9447 140.122L77.1585 76.5014C77.0674 75.6476 76.347 75 75.4884 75Z" fill="#FF9D00"/>
<path d="M75.347 74.6557C74.7458 75.2569 73.7902 75.314 73.1217 74.7888L22.8117 35.2594C18.6017 31.9516 18.2284 25.7083 22.0143 21.9224C25.7669 18.1698 31.9447 18.4983 35.2781 22.6278L75.4663 72.4131C76.0056 73.0813 75.9542 74.0486 75.347 74.6557Z" fill="#FF9D00"/>
<path d="M75.3435 74.656C74.7423 75.2572 74.6852 76.2128 75.2105 76.8813L114.74 127.191C118.048 131.401 124.291 131.774 128.077 127.988C131.829 124.236 131.501 118.058 127.371 114.725L77.5861 74.5368C76.918 73.9974 75.9507 74.0489 75.3435 74.656Z" fill="#FF9D00"/>
<path d="M75.3435 75.347C74.7423 74.7458 74.6852 73.7902 75.2105 73.1217L114.74 22.8116C118.048 18.6017 124.291 18.2284 128.077 22.0143C131.829 25.7669 131.501 31.9447 127.371 35.2781L77.5861 75.4663C76.918 76.0056 75.9507 75.9541 75.3435 75.347Z" fill="#FF9D00"/>
<path d="M75.347 75.3474C74.7458 74.7462 73.7902 74.6891 73.1217 75.2143L22.8117 114.744C18.6017 118.051 18.2284 124.295 22.0143 128.081C25.7669 131.833 31.9447 131.505 35.2781 127.375L75.4663 77.59C76.0056 76.9219 75.9542 75.9545 75.347 75.3474Z" fill="#FF9D00"/>
</g>
<defs>
<clipPath id="clip0_1_83">
<rect width="150" height="150" fill="white"/>
</clipPath>
</defs>
</svg>
