<svg width="170" height="40" viewBox="0 0 170 40" fill="none" xmlns="http://www.w3.org/2000/svg">
<path fill-rule="evenodd" clip-rule="evenodd" d="M22.3717 32.284H12.4593L18.5773 20.0008L14.6932 12.2017L0.849541 40H22.3717C25.0834 40 27.6678 39.4619 30.0192 38.4884C32.258 37.5639 34.2946 36.2366 36.0409 34.6011L36.504 34.138C38.3515 32.2889 39.8418 30.0811 40.8593 27.632C41.7137 25.5758 42.2323 23.3435 42.348 21.0053L42.2094 21.2319C41.2572 22.7728 40.1337 24.1882 38.87 25.4519C36.7258 27.5961 34.1527 29.3294 31.2894 30.5165C28.537 31.6546 25.5236 32.284 22.3717 32.284ZM0 0L8.10077 16.2668L12.3582 7.71758H22.3701C24.0284 7.71758 25.6166 8.05022 27.0678 8.65191C28.5777 9.27969 29.9295 10.1896 31.0562 11.3163C33.2787 13.5388 34.6549 16.6108 34.6549 20.0024C34.6549 21.5482 34.3679 23.0337 33.8462 24.4018C34.5995 23.8409 35.3121 23.2245 35.9773 22.5592C37.3063 21.2303 38.4428 19.7089 39.3347 18.049C40.1582 16.5162 40.781 14.8612 41.1642 13.1262C40.6848 11.8153 40.0685 10.5662 39.3347 9.39546C38.5423 8.12523 37.5916 6.93979 36.5122 5.86034C32.8939 2.24206 27.8912 0.00162969 22.3701 0.00162969H0V0Z" fill="#FF9D00"/>
<path d="M60.7465 37.8297C58.8238 37.8297 57.0153 37.3577 55.3208 36.4137C53.6588 35.4371 52.3228 34.0211 51.3126 32.1656C50.3024 30.3102 49.7973 28.0641 49.7973 25.4273V24.6461C49.7973 22.0094 50.3024 19.7633 51.3126 17.9078C52.3228 16.0524 53.6588 14.6526 55.3208 13.7086C56.9827 12.732 58.7912 12.2438 60.7465 12.2438C62.2129 12.2438 63.4349 12.4228 64.4125 12.7809C65.4227 13.1064 66.2373 13.5296 66.8565 14.0504C67.4756 14.5712 67.9481 15.1246 68.274 15.7106H69.1538V2.96642H75.3127V37.1461H69.2516V34.2164H68.3718C67.8178 35.1279 66.9542 35.9579 65.7811 36.7066C64.6406 37.4553 62.9624 37.8297 60.7465 37.8297ZM62.6039 32.4586C64.4939 32.4586 66.0744 31.8564 67.3453 30.652C68.6162 29.415 69.2516 27.6246 69.2516 25.2809V24.7926C69.2516 22.4488 68.6162 20.6747 67.3453 19.4703C66.107 18.2333 64.5265 17.6149 62.6039 17.6149C60.7139 17.6149 59.1334 18.2333 57.8625 19.4703C56.5916 20.6747 55.9562 22.4488 55.9562 24.7926V25.2809C55.9562 27.6246 56.5916 29.415 57.8625 30.652C59.1334 31.8564 60.7139 32.4586 62.6039 32.4586Z" fill="white"/>
<path d="M82.1411 37.1461V12.9274H88.3V37.1461H82.1411ZM85.2205 10.0953C84.1126 10.0953 83.1675 9.73725 82.3855 9.0211C81.636 8.30496 81.2612 7.36095 81.2612 6.18908C81.2612 5.0172 81.636 4.07319 82.3855 3.35704C83.1675 2.6409 84.1126 2.28283 85.2205 2.28283C86.361 2.28283 87.3061 2.6409 88.0556 3.35704C88.8051 4.07319 89.1798 5.0172 89.1798 6.18908C89.1798 7.36095 88.8051 8.30496 88.0556 9.0211C87.3061 9.73725 86.361 10.0953 85.2205 10.0953Z" fill="white"/>
<path d="M104.412 37.1461C102.815 37.1461 101.512 36.6578 100.502 35.6812C99.5241 34.6721 99.0353 33.3375 99.0353 31.6773V18.0055H92.9741V12.9274H99.0353V5.40782H105.194V12.9274H111.842V18.0055H105.194V30.6031C105.194 31.5797 105.65 32.068 106.563 32.068H111.255V37.1461H104.412Z" fill="white"/>
<path d="M128.093 37.8297C125.682 37.8297 123.515 37.3414 121.592 36.3648C119.67 35.3883 118.154 33.9723 117.046 32.1168C115.938 30.2613 115.385 28.0315 115.385 25.4273V24.6461C115.385 22.0419 115.938 19.8121 117.046 17.9566C118.154 16.1012 119.67 14.6852 121.592 13.7086C123.515 12.732 125.682 12.2438 128.093 12.2438C130.505 12.2438 132.672 12.732 134.594 13.7086C136.517 14.6852 138.032 16.1012 139.14 17.9566C140.248 19.8121 140.802 22.0419 140.802 24.6461V25.4273C140.802 28.0315 140.248 30.2613 139.14 32.1168C138.032 33.9723 136.517 35.3883 134.594 36.3648C132.672 37.3414 130.505 37.8297 128.093 37.8297ZM128.093 32.3609C129.983 32.3609 131.548 31.7587 132.786 30.5543C134.024 29.3173 134.643 27.5595 134.643 25.2809V24.7926C134.643 22.5139 134.024 20.7724 132.786 19.568C131.58 18.331 130.016 17.7125 128.093 17.7125C126.203 17.7125 124.639 18.331 123.401 19.568C122.163 20.7724 121.543 22.5139 121.543 24.7926V25.2809C121.543 27.5595 122.163 29.3173 123.401 30.5543C124.639 31.7587 126.203 32.3609 128.093 32.3609Z" fill="white"/>
<path d="M142.761 37.1461L151.56 24.9391L142.859 12.9274H149.995L155.519 20.984H156.399L161.922 12.9274H169.059L160.358 24.9391L169.156 37.1461H161.922L156.399 28.9918H155.519L149.995 37.1461H142.761Z" fill="white"/>
</svg>
